<?xml version="1.0" encoding="UTF-8" standalone="no"?>
<svg id="sigmoid_function"
   version="1.1"
   baseProfile="full"
   xmlns="http://www.w3.org/2000/svg"
   xmlns:xlink="http://www.w3.org/1999/xlink"
   width="490"
   height="270">

  <title>Sigmoid.svg - a plot of the Sigmoid function</title>

  <desc>
      Sigmoid-function: f(x) = 1 / (1 + e^-x)
      Smooth plot with highly accurate cubic bezier-curves.
  </desc>

  <defs>
    <marker id="Arrow" refX="2.52" refY="2.25" fill="#d3d3d3" markerUnits="strokeWidth"
       markerWidth="6" markerHeight="4.5" orient="auto">
      <path d="M 2.52 2.25 L 0 4.5 L 6 2.25 L 0 0 z" />
    </marker>

    <line id="xgridline" x1="0" x2="0" y1="20" y2="-180" stroke="#d3d3d3" stroke-width="0.5" />
    <line id="ygridline" x1="-216.5" x2="216.5" y1="0" y2="0" stroke="#d3d3d3" stroke-width="0.5" />
    <line id="xtick" x1="0" x2="0" y1="5" y2="-5" stroke="#d3d3d3" stroke-width="1" />
    <line id="ytick" x1="-5" x2="5" y1="0" y2="0" stroke="#d3d3d3" stroke-width="1" />

    <path id="minus" d="M 83 0 m 578 230 c 14 0 33 0 33 20 c 0 20 -19 20 -33 20 h -467.2 c -14 0 -33 0 -33 -20 c 0 -20 19 -20 33 -20 z"/>
    <path id="zero" d="M 39 0 m 421 320 c 0 80 -5 160 -40 234 c -46 96 -128 112 -170 112 c -60 0 -133 -26 -174 -119 c -32 -69 -37 -147 -37 -227 c 0 -75 4 -165 45 -241 c 43 -81 116 -101 165 -101 c 54 0 130 21 174 116 c 32 69 37 147 37 226 z M 460 320 m -211 -320 c -39 0 -98 25 -116 121 c -11 60 -11 152 -11 211 c 0 64 0 130 8 184 c 19 119 94 128 119 128 c 33 0 99 -18 118 -117 c 10 -56 10 -132 10 -195 c 0 -75 0 -143 -11 -207 c -15 -95 -72 -125 -117 -125 z"/>
    <path id="one" d="M 89 0 m 205 640 c 0 24 0 26 -23 26 c -62 -64 -150 -64 -182 -64 v -31 c 20 0 79 0 131 26 v -518 c 0 -36 -3 -48 -93 -48 h -32 v -31 c 35 3 122 3 162 3 c 40 0 127 0 162 -3 v 31 h -32 c -90 0 -93 11 -93 48 z"/>
    <path id="two" d="M 50 0 m 399 174 h -25 c -5 -30 -12 -74 -22 -89 c -7 -8 -73 -8 -95 -8 h -180 l 106 103 c 156 138 216 192 216 292 c 0 114 -90 194 -212 194 c -113 0 -187 -92 -187 -181 c 0 -56 50 -56 53 -56 c 17 0 52 12 52 53 c 0 26 -18 52 -53 52 c -8 0 -10 0 -13 -1 c 23 65 77 102 135 102 c 91 0 134 -81 134 -163 c 0 -80 -50 -159 -105 -221 l -192 -214 c -11 -11 -11 -13 -11 -37 h 371 z"/>
    <path id="five" d="M 50 0 m 399 201 c 0 119 -82 219 -190 219 c -48 0 -91 -16 -127 -51 v 195 c 20 -6 53 -13 85 -13 c 123 0 193 91 193 104 c 0 6 -3 11 -10 11 c -1 0 -3 0 -8 -3 c -20 -9 -69 -29 -136 -29 c -40 0 -86 7 -133 28 c -8 3 -10 3 -12 3 c -10 0 -10 -8 -10 -24 v -296 c 0 -18 0 -26 14 -26 c 7 0 9 3 13 9 c 11 16 48 70 129 70 c 52 0 77 -46 85 -64 c 16 -37 18 -76 18 -126 c 0 -35 0 -95 -24 -137 c -24 -39 -61 -65 -107 -65 c -73 0 -130 53 -147 112 c 3 -1 6 -2 17 -2 c 33 0 50 25 50 49 c 0 24 -17 49 -50 49 c -14 0 -49 -7 -49 -53 c 0 -86 69 -183 181 -183 c 116 0 218 96 218 223 z"/>
    <path id="dot" d="M 192 378 m 0 -325 c 0 29 -24 53 -53 53 c -29 0 -53 -24 -53 -53 c 0 -29 24 -53 53 -53 c 29 0 53 24 53 53 z"/>
  </defs>

  <g transform="translate(244.5, 215.5)">
    <g id="grid" opacity="0.4">
      <use xlink:href="#xgridline" x="-160" />
      <use xlink:href="#xgridline" x="-80" />
      <use xlink:href="#xgridline" x="80" />
      <use xlink:href="#xgridline" x="160" />
      <use xlink:href="#ygridline" y="-80" />
      <use xlink:href="#ygridline" y="-160" />
    </g>

    <g id="axes">
      <line x1="-230.5" x2="230.5" y1="0" y2="0" stroke="#d3d3d3" stroke-width="2" marker-end="url(#Arrow)" />
      <line x1="0" x2="0" y1="20" y2="-180" stroke="#d3d3d3" stroke-width="2" marker-end="url(#Arrow)" />
    </g>

    <g id="ticks">
      <use xlink:href="#xtick" x="-160" />
      <use xlink:href="#xtick" x="-80" />
      <use xlink:href="#xtick" x="80" />
      <use xlink:href="#xtick" x="160" />
      <use xlink:href="#ytick" y="-80" />
      <use xlink:href="#ytick" y="-160" />
    </g>

    <g id="xlabels" transform="translate(0,25)">
      <g transform="translate(-160,0) scale(0.02,-0.02)">
        <use xlink:href="#minus" fill="#d3d3d3" x="-950" />
        <use xlink:href="#two" fill="#d3d3d3" x="-250" />
      </g>
      <g transform="translate(-80,0) scale(0.02,-0.02)">
        <use xlink:href="#minus" fill="#d3d3d3" x="-950" />
        <use xlink:href="#one" fill="#d3d3d3" x="-250" />
      </g>
      <g transform="translate(80,0) scale(0.02,-0.02)">
        <use xlink:href="#one" fill="#d3d3d3" x="-250" />
      </g>
      <g transform="translate(160,0) scale(0.02,-0.02)">
        <use xlink:href="#two" fill="#d3d3d3" x="-250" />
      </g>
    </g>

    <g id="ylabels">
      <g transform="translate(-35,-75) scale(0.02,-0.02)">
        <use xlink:href="#zero" fill="#d3d3d3" x="0" />
        <use xlink:href="#dot" fill="#d3d3d3" x="500" />
        <use xlink:href="#five" fill="#d3d3d3" x="777.8" />
      </g>
      <g transform="translate(-15,-155) scale(0.02,-0.02)">
        <use xlink:href="#one" fill="#d3d3d3" x="0" />
      </g>
    </g>

    <g transform="scale(80, -80)">
      <path id="sigmoid-path"
          fill="none" stroke="#0f7dbd" stroke-width="0.05px" stroke-linecap="butt"
          d="M -5.4, 0.008993
             C -5.260242, 0.010244 -5.127162, 0.011695 -5.0, 0.013386
             C -4.626074, 0.018357 -4.29687, 0.025485 -4.0, 0.035972
             C -3.629426, 0.049063 -3.300576, 0.067694 -3.0, 0.094852
             C -2.635372, 0.127797 -2.308362, 0.173654 -2.0, 0.238406
             C -1.635538, 0.314938 -1.31437, 0.414265 -1.0, 0.537883
             C -0.64546, 0.677297 -0.324042, 0.837979 0.0, 1.0
             C 0.324042, 1.162021 0.64546, 1.322703 1.0, 1.462117
             C 1.31437, 1.585735 1.635538, 1.685062 2.0, 1.761594
             C 2.308362, 1.826346 2.635372, 1.872203 3.0, 1.905148
             C 3.300576, 1.932306 3.629426, 1.950937 4.0, 1.964028
             C 4.29687, 1.974515 4.626074, 1.981643 5.0, 1.986614
             C 5.127162, 1.988305 5.260242, 1.989756 5.4, 1.991007" />
    </g>
  </g>
</svg>
